<?xml version="1.0" standalone="no"?><!DOCTYPE svg PUBLIC "-//W3C//DTD SVG 1.1//EN" "http://www.w3.org/Graphics/SVG/1.1/DTD/svg11.dtd"><svg t="1725700992338" class="icon" viewBox="0 0 1024 1024" version="1.1" xmlns="http://www.w3.org/2000/svg" p-id="8191" xmlns:xlink="http://www.w3.org/1999/xlink" width="200" height="200"><path d="M512 512m-512 0a512 512 0 1 0 1024 0 512 512 0 1 0-1024 0Z" fill="#F74C31" p-id="8192"></path><path d="M640.750933 498.141867c0 40.2944-5.597867 70.536533 75.025067 79.479466 80.605867 8.96 71.662933-49.2544 70.536533-88.439466 0-44.782933-106.359467-108.612267-274.312533-108.612267-167.936 0-273.186133 62.702933-274.312533 108.612267 0 40.311467-10.069333 97.399467 70.536533 88.439466 80.622933-8.942933 75.025067-39.185067 75.025067-79.479466 0-29.115733 66.048-34.7136 128.750933-34.7136 62.702933 0 128.750933 5.597867 128.750933 34.7136z" fill="#FFFFFF" p-id="8193"></path></svg>