<?xml version="1.0" standalone="no"?><!DOCTYPE svg PUBLIC "-//W3C//DTD SVG 1.1//EN" "http://www.w3.org/Graphics/SVG/1.1/DTD/svg11.dtd"><svg t="1725700960673" class="icon" viewBox="0 0 1024 1024" version="1.1" xmlns="http://www.w3.org/2000/svg" p-id="7220" xmlns:xlink="http://www.w3.org/1999/xlink" width="200" height="200"><path d="M512 512m-512 0a512 512 0 1 0 1024 0 512 512 0 1 0-1024 0Z" fill="#0BB207" p-id="7221"></path><path d="M411.136 430.762667c28.501333-28.501333 53.845333-45.909333 3.1744-109.2608-50.670933-63.3344-85.504-15.837867-112.418133 12.663466-31.658667 31.675733-1.5872 152.0128 117.179733 270.762667 118.749867 118.766933 237.499733 148.8384 270.762667 117.179733 28.501333-28.501333 75.997867-61.7472 12.663466-112.418133-63.3344-50.688-80.759467-25.344-109.2608 3.157333-20.5824 20.5824-71.253333-22.1696-115.592533-66.491733-44.322133-44.3392-87.074133-95.010133-66.491733-115.592533z" fill="#FFFFFF" p-id="7222"></path></svg>